<svg width="2640" height="592" viewBox="0 0 2640 592" fill="none" xmlns="http://www.w3.org/2000/svg">
<path d="M79.9794 79.3951L238.733 79.3954L79.9796 239.392L79.9794 79.3951Z" fill="#D1164C"/>
<path d="M481.878 514.19L324.469 512.364L481.878 354.193L481.878 514.19Z" fill="#D1164C"/>
<path d="M287.124 79.9451L376.393 152.653L259.068 277.659H86.9062L287.124 79.9451Z" fill="#D1164C"/>
<path d="M276.922 512.364L182.552 435.83L302.881 310.824H475.864L276.922 512.364Z" fill="#D1164C"/>
<path d="M482.24 83.7721V142.448L421.027 217.707L477.875 277.659H306.253L482.24 83.7721Z" fill="#D1164C"/>
<path d="M80.5298 495.782L79.2546 446.035L140.468 370.776L83.6203 310.824H255.242L80.5298 495.782Z" fill="#D1164C"/>
<path d="M770.452 350.366C764.075 442.208 688.834 447.31 653.127 446.034C617.419 444.759 582.987 434.554 552.38 405.216L599.565 356.744C656.953 416.696 718.166 379.705 692.66 342.713C674.806 316.819 586.813 328.682 567.684 250.871C558.757 165.408 644.2 144.999 679.907 146.274C707.946 147.276 751.323 161.582 771.727 183.266L727.093 230.462C662.054 171.786 619.354 231.297 646.75 250.871C682.458 276.383 766.626 268.73 770.452 350.366Z" fill="#D1164C"/>
<rect x="839.316" y="155.204" width="198.942" height="58.6763" fill="#D1164C"/>
<rect x="839.316" y="264.903" width="198.942" height="58.6763" fill="#D1164C"/>
<rect x="839.316" y="379.704" width="198.942" height="58.6763" fill="#D1164C"/>
<path d="M1112.22 155.204H1184.92V375.878H1295.86V438.381H1112.22V155.204Z" fill="#D1164C"/>
<path d="M1513.93 147.892C1544.36 153.699 1568.51 168.594 1590.45 189.644L1541.99 238.116C1531.21 227.771 1510.11 199.849 1460.37 215.156C1410.64 230.463 1406.24 280.886 1406.24 295.517C1406.24 310.148 1408.09 358.308 1450.17 374.602C1492.26 390.897 1527.96 375.878 1543.27 351.642L1593 398.838C1571.06 419.889 1544.36 437.335 1513.93 443.142C1483.5 448.95 1451.96 445.969 1423.3 434.577C1394.64 423.185 1370.14 403.893 1352.91 379.14C1335.67 354.388 1326.47 325.287 1326.47 295.517C1326.47 265.747 1335.67 236.646 1352.91 211.894C1370.14 187.141 1394.64 167.849 1423.3 156.457C1451.96 145.065 1483.5 142.084 1513.93 147.892Z" fill="#D1164C"/>
<path d="M1941.15 296.792C1941.15 379.216 1879.94 446.034 1786.84 446.034C1689.92 446.034 1629.98 379.216 1629.98 296.792C1629.98 214.368 1684.82 147.551 1786.84 147.551C1882.49 147.551 1941.15 214.368 1941.15 296.792ZM1707.38 296.792C1707.38 350.366 1742.96 380.98 1786.84 380.98C1831.48 380.98 1866.3 342.713 1866.3 296.792C1866.3 248.321 1830.73 211.329 1786.84 211.329C1742.96 211.329 1707.38 243.218 1707.38 296.792Z" fill="#D1164C"/>
<path d="M2640 244.494C2640 299.344 2595.37 332.508 2525.23 332.508H2493.34V438.381H2423.2V153.928C2423.2 153.928 2490.37 153.928 2525.23 153.928C2609.39 153.928 2640 192.196 2640 244.494ZM2493.34 244.494V276.383C2523.95 276.383 2569.86 276.383 2569.86 244.494C2569.86 212.604 2537.98 211.329 2493.34 211.329V244.494Z" fill="#D1164C"/>
<path d="M2012.57 155.204H2112.04L2175.8 332.509L2237.01 155.204H2339.04V438.381H2268.9L2270.17 238.116L2198.76 438.381H2147.75L2077.61 238.116L2078.88 438.381H2012.57V155.204Z" fill="#D1164C"/>
</svg>
